<?xml version="1.0" ?><svg id="Layer_1" style="enable-background:new 1 -1 100 100;" version="1.1" viewBox="1 -1 100 100" xml:space="preserve" xmlns="http://www.w3.org/2000/svg" xmlns:xlink="http://www.w3.org/1999/xlink"><title/><path d="M66.3,8.1C61.2,6.4,56,5.6,50.7,5.8C27,6.5,8.3,26.3,9.1,50.1c0.1,4.9,1.1,9.7,2.9,14.2c1.5,3.8,3.5,7.4,6.1,10.6l-3.6,8.5  c-1.4,3.2,0.1,7,3.4,8.3c1.1,0.5,2.4,0.6,3.6,0.4L38,89.2c22.4,7.8,46.9-4,54.7-26.4C100.5,40.4,88.7,15.9,66.3,8.1z M34.7,56.1  c-3.6,0-6.6-2.9-6.6-6.6c0-3.6,2.9-6.6,6.6-6.6c3.6,0,6.6,2.9,6.6,6.6S38.3,56.1,34.7,56.1z M52,56.1c-3.6,0-6.6-2.9-6.6-6.6  s2.9-6.6,6.6-6.6c3.6,0,6.6,2.9,6.6,6.6S55.6,56.1,52,56.1z M69.3,56.1c-3.6,0-6.6-2.9-6.6-6.6s2.9-6.6,6.6-6.6  c3.6,0,6.6,2.9,6.6,6.6S72.9,56.1,69.3,56.1z"/></svg>